<?xml version="1.0" standalone="no"?>
<!DOCTYPE svg PUBLIC "-//W3C//DTD SVG 1.1//EN" "http://www.w3.org/Graphics/SVG/1.1/DTD/svg11.dtd" >
<svg xmlns="http://www.w3.org/2000/svg">
<metadata></metadata>
<defs>
<font id="montreal-serialregular" horiz-adv-x="1173" >
<font-face units-per-em="2048" ascent="1638" descent="-410" />
<missing-glyph horiz-adv-x="593" />
<glyph horiz-adv-x="0" />
<glyph unicode="&#xd;" horiz-adv-x="593" />
<glyph unicode=" "  horiz-adv-x="593" />
<glyph unicode="&#x09;" horiz-adv-x="593" />
<glyph unicode="&#xa0;" horiz-adv-x="593" />
<glyph unicode="!" horiz-adv-x="475" d="M117 90q0 49 35.5 85t87.5 36q49 0 83.5 -35t34.5 -86q0 -47 -34.5 -84t-83.5 -37t-86 35t-37 86zM154 346v1131h170v-1131h-170z" />
<glyph unicode="&#x22;" horiz-adv-x="712" d="M16 1006l119 522l195 -51l-187 -504zM338 1006l121 522l196 -51l-188 -504z" />
<glyph unicode="#" horiz-adv-x="1294" d="M96 459l23 102h235l74 352h-235l20 103h238l90 430h102l-92 -430h215l90 430h100l-90 -430h236l-21 -103h-235l-76 -352h236l-21 -102h-235l-93 -430h-100l90 430h-213l-92 -430h-100l90 430h-236zM455 561h215l73 352h-213z" />
<glyph unicode="$" horiz-adv-x="1028" d="M-6 279l143 88q57 -106 125 -159.5t178 -76.5v563q-33 14 -65 29q-10 6 -56 31q-74 39 -122 77q-115 104 -115 267q0 164 105.5 275.5t256.5 111.5v145h107v-143h33q100 0 200 -72q84 -63 146 -174l-154 -74q-31 74 -86 121t-110 47l-31 -2l-2 -485q70 -27 74 -29 q27 -12 65 -31q143 -72 209 -158.5t66 -207.5q0 -180 -114 -302t-306 -147v-141h-109v139q-152 14 -259 89.5t-179 218.5zM268 1110q0 -72 47 -131t127 -88v436q-84 -35 -129 -92t-45 -125zM543 133q111 20 175 95t64 180q0 82 -51 135t-188 114v-524z" />
<glyph unicode="%" horiz-adv-x="1714" d="M74 1137q0 154 108.5 262t259.5 108q154 0 263.5 -107.5t109.5 -260.5q0 -154 -108.5 -262.5t-264.5 -108.5q-152 0 -260 108.5t-108 260.5zM225 1139q0 -94 63.5 -160t153.5 -66q92 0 156 65.5t64 160.5q0 92 -64 157.5t-156 65.5q-90 0 -153.5 -65.5t-63.5 -157.5z M371 33l825 1480l141 -77l-825 -1483zM897 336q0 154 108.5 264.5t262.5 110.5q156 0 264 -108.5t108 -264.5q0 -154 -109.5 -261.5t-264.5 -107.5q-154 0 -261.5 107.5t-107.5 259.5zM1053 338q0 -92 62.5 -158.5t150.5 -66.5q92 0 156.5 66.5t64.5 158.5q0 94 -63.5 161.5 t-155.5 67.5q-90 0 -152.5 -66.5t-62.5 -162.5z" />
<glyph unicode="&#x26;" horiz-adv-x="1308" d="M74 426q0 135 76.5 243t246.5 212q-158 178 -157 327q0 125 92 209t231 84t233.5 -82t94.5 -207q0 -96 -59.5 -180t-198.5 -180l350 -422l186 174l111 -119l-188 -178l202 -229l-123 -105l-204 234q-133 -125 -237.5 -180.5t-209.5 -55.5q-186 0 -316 132.5t-130 322.5z M242 426q0 -117 85 -204t195 -87q72 0 143.5 40t198.5 151l-360 430q-150 -100 -206 -171t-56 -159zM412 1210q0 -102 123 -235q94 68 138 125t44 112q0 59 -43 100.5t-111 41.5q-66 0 -108.5 -41.5t-42.5 -102.5z" />
<glyph unicode="'" horiz-adv-x="389" d="M16 989l119 522l195 -49l-187 -506z" />
<glyph unicode="(" horiz-adv-x="419" d="M74 737q0 352 123 717q35 101 94 238l127 -45q-35 -88 -52.5 -139.5t-33.5 -104.5q-43 -152 -69.5 -337t-26.5 -329q0 -141 26.5 -325.5t69.5 -337.5q27 -92 86 -246l-127 -43q-39 88 -56.5 131t-37.5 107q-123 369 -123 714z" />
<glyph unicode=")" horiz-adv-x="419" d="M2 -166q33 88 56.5 155.5t39.5 129.5q37 150 61.5 321.5t24.5 296.5t-24.5 299t-61.5 322q-29 104 -47 160q-31 76 -49 124l125 44q35 -78 49 -113q23 -57 51 -146q55 -168 88 -353t33 -337q0 -145 -32.5 -332.5t-88.5 -357.5q-25 -74 -40 -115t-60 -141z" />
<glyph unicode="*" horiz-adv-x="864" d="M59 1143l39 184l269 -106l-33 290h186l-37 -292l279 104l45 -182l-293 -31l176 -231l-164 -91l-104 252l-117 -245l-164 102l197 217z" />
<glyph unicode="+" d="M106 643v145h402v398h160v-398h399v-145h-399v-399h-164v399h-398z" />
<glyph unicode="," horiz-adv-x="385" d="M16 -268l119 522l193 -51l-185 -504z" />
<glyph unicode="-" horiz-adv-x="622" d="M74 414v164h475v-164h-475z" />
<glyph unicode="." horiz-adv-x="360" d="M59 94q0 51 35 86t88 35q49 0 84 -35t35 -86t-35 -86t-84 -35q-53 0 -88 35t-35 86z" />
<glyph unicode="/" horiz-adv-x="483" d="M2 0l324 1509l155 -32l-323 -1510z" />
<glyph unicode="0" d="M59 735q0 342 145.5 553t381.5 211q238 0 383 -209t145 -555q0 -342 -145.5 -553t-382.5 -211q-236 0 -381.5 209t-145.5 555zM238 735q0 -276 94 -438t254 -162q162 0 256 162t94 438t-94 438t-256 162q-160 0 -254 -161.5t-94 -438.5z" />
<glyph unicode="1" d="M291 0v147h217v1182h-215v148h385v-1330h215v-147h-602z" />
<glyph unicode="2" d="M104 1055q0 197 134.5 322.5t347.5 125.5q217 0 354 -125t137 -325q0 -158 -98 -289q-43 -59 -99.5 -119.5t-121.5 -120.5l-422 -377h766v-147h-993v154l526 479l115 112q84 90 118.5 160t34.5 148q0 127 -89 207.5t-232 80.5q-135 0 -217 -77.5t-82 -208.5l2 -56h-179z " />
<glyph unicode="3" d="M98 422h178q0 -135 83 -214t221 -79q137 0 227 82t90 209q0 123 -86 200.5t-227 77.5l-47 -4v160l53 -4q111 0 184.5 71.5t73.5 180.5t-76 178.5t-192 69.5q-119 0 -194 -64.5t-75 -175.5h-174q20 188 137 290.5t312 102.5q186 0 310 -111.5t124 -283.5q0 -217 -201 -320 q70 -25 103 -51q154 -113 153 -311q0 -195 -140 -326t-351 -131q-219 0 -352.5 122t-133.5 331z" />
<glyph unicode="4" d="M59 344l789 1133h70v-1076h184v-147h-184v-254h-170v254h-631zM289 401h459v578q0 49 22 139q-25 -53 -33 -68.5t-39 -60.5z" />
<glyph unicode="5" d="M29 274l133 103q49 -117 142 -181.5t216 -64.5q162 0 268.5 106.5t106.5 270.5q0 154 -104.5 250t-272.5 96q-61 0 -101 -8t-102 -37l-69 45l186 623h637v-148h-518l-102 -340q80 16 133 17q213 0 352 -141.5t139 -352.5q0 -233 -157.5 -387t-395.5 -154 q-100 0 -179 24.5t-155 84.5q-57 43 -91.5 87t-65.5 107z" />
<glyph unicode="6" d="M76 449q0 70 14 129t49 120l51 86l134 181l395 538l131 -94l-387 -512q55 18 89 24.5t79 6.5q201 0 334 -131t133 -330q0 -211 -147.5 -354.5t-366.5 -143.5t-363.5 136.5t-144.5 343.5zM242 449l2 -13q0 -135 97 -225t241 -90q152 0 250 96t98 244q0 141 -99.5 234 t-246.5 93q-145 0 -243.5 -96t-98.5 -243z" />
<glyph unicode="7" d="M84 51l807 1278h-778v148h977v-131l-857 -1373z" />
<glyph unicode="8" d="M111 397q0 94 39.5 176t111.5 136q18 14 39.5 26.5t58.5 24.5q-215 88 -215 332q0 182 123 296.5t318 114.5t318.5 -114.5t123.5 -296.5q0 -244 -215 -332q33 -12 56.5 -24.5t43.5 -26.5q72 -55 111 -136t39 -176q0 -184 -136 -306t-341 -122q-201 0 -338 123t-137 305z M297 403q0 -117 83 -195.5t206 -78.5q127 0 209 78t82 196q0 119 -84 199t-207 80q-121 0 -205 -80t-84 -199zM322 1085q0 -111 74.5 -179t189.5 -68t190.5 73.5t75.5 188.5q0 109 -73.5 178.5t-192.5 69.5q-115 0 -189.5 -68.5t-74.5 -179.5v-15z" />
<glyph unicode="9" d="M76 1010q0 209 149.5 352t368.5 143q217 0 361.5 -134t144.5 -339q0 -168 -115 -338l-115 -159l-415 -564l-131 95l391 516q-92 -37 -164 -37q-201 0 -338 133t-137 332zM246 1016q0 -139 98 -233.5t246 -94.5q145 0 243.5 96.5t98.5 241.5q0 141 -95.5 234.5 t-240.5 93.5q-150 0 -250 -96.5t-100 -241.5z" />
<glyph unicode=":" horiz-adv-x="479" d="M117 92q0 53 34.5 88t88.5 35q51 0 85.5 -35t34.5 -86t-34.5 -86t-85.5 -35q-49 0 -86 35t-37 84zM119 770q0 53 34.5 88t88.5 35q49 0 83.5 -35t34.5 -86q0 -49 -35.5 -85t-84.5 -36q-51 0 -86 35t-35 84z" />
<glyph unicode=";" horiz-adv-x="430" d="M29 -268l123 522l188 -51l-182 -504zM84 770q0 53 35 88t88 35q49 0 85 -36t36 -85q0 -53 -36 -87t-89 -34q-49 0 -84 35t-35 84z" />
<glyph unicode="&#x3c;" horiz-adv-x="798" d="M74 498l547 477l106 -117l-424 -356l422 -371l-104 -123z" />
<glyph unicode="=" d="M106 549v156h961v-156h-961zM106 803v155h961v-155h-961z" />
<glyph unicode="&#x3e;" horiz-adv-x="800" d="M74 133l424 363l-422 372l104 115l549 -494l-553 -479z" />
<glyph unicode="?" horiz-adv-x="1017" d="M16 1112q43 186 166 288.5t307 102.5q209 0 347.5 -134t138.5 -339q0 -135 -72 -243.5t-203 -170.5l-129 -61l-20 -12q-18 -12 -25.5 -22.5t-7.5 -31.5l-4 -26v-115h-166v146q0 82 16.5 109.5t90.5 60.5l114 53q131 61 186.5 133t55.5 184q0 139 -88 229.5t-229 90.5 q-131 0 -215 -76t-99 -207zM309 92q0 49 35 86t86 37t86 -35t35 -88q0 -49 -36 -85t-85 -36q-51 0 -86 35t-35 86z" />
<glyph unicode="@" horiz-adv-x="1722" d="M119 788q0 113 39 216.5t106 195.5q94 127 225.5 206t278.5 95q25 4 50.5 4h39.5q274 0 450.5 -178t176.5 -455q0 -33 -2 -66.5t-8 -66.5q-33 -190 -128.5 -307t-207.5 -133q-12 -2 -35 -2q-80 0 -131 51t-43 123q-10 -37 -41 -74q-72 -84 -166 -84q-55 0 -102 23 q-78 35 -118 125t-40 239l8 72q31 195 137 318q51 61 107.5 89.5t113.5 28.5q121 0 179 -108l10 -21l18 117l101 -2l-78 -440l-29 -179q-4 -25 -4 -63q0 -39 8 -63q20 -63 84 -64q14 0 36 7t48.5 28.5t63.5 65.5t64.5 113t41.5 161q8 51 8 112q0 238 -144 386.5t-372 148.5 q-23 0 -51.5 -3t-44.5 -5q-225 -33 -376.5 -219.5t-151.5 -446.5v-47q4 -23 7 -54.5t4 -38.5t13 -52q55 -223 214 -350.5t364 -127.5q88 0 169 23t167 76q49 29 100 74q66 55 111 116l41 -73l-52 -60q-119 -125 -256 -186.5t-288 -61.5q-313 0 -514 231.5t-201 585.5z M582 596q0 -39 7 -69.5t19 -57.5q35 -74 117 -74q55 0 94 39q31 31 49.5 62.5t46.5 113.5q18 55 37 154l4 20l15 86q4 23 4 44.5v31.5q0 31 -2 45q-10 59 -47 92t-88 33q-31 0 -54 -10q-55 -23 -92 -73t-71 -154l-27 -101q-8 -49 -10 -92t-2 -90z" />
<glyph unicode="A" horiz-adv-x="1265" d="M-59 0l614 1477h156l616 -1477h-190l-172 410h-664l-170 -410h-190zM365 565h536l-225 572q-31 76 -43 153q-6 -47 -14.5 -77.5t-26.5 -75.5z" />
<glyph unicode="B" horiz-adv-x="1093" d="M117 0v1477h315q127 0 174 -9q135 -25 225.5 -131t90.5 -241q0 -213 -181 -299q311 -61 312 -377q0 -188 -140 -311q-63 -59 -137 -84t-186 -25h-473zM295 156h252q158 0 244 67.5t86 196.5q0 270 -353 270h-229v-534zM295 846h174q135 0 207 61.5t72 177.5 q0 236 -302 236h-151v-475z" />
<glyph unicode="C" horiz-adv-x="1347" d="M66 725q0 334 219 555t553 221q63 0 127.5 -10t128.5 -29q53 -18 96 -40.5t115 -73.5l-99 -144l-76 53q-129 78 -292 78q-252 0 -421 -173t-169 -427q0 -256 168 -428t420 -172q115 0 231 47q61 25 137 84l99 -147l-78 -47q-180 -102 -404 -103q-322 0 -538.5 217 t-216.5 539z" />
<glyph unicode="D" horiz-adv-x="1318" d="M117 0v1477h350q156 0 266 -31q236 -63 378 -257t142 -452q0 -315 -213 -534q-201 -203 -520 -203h-403zM295 158h231q240 0 397.5 165.5t157.5 415.5q0 254 -163.5 416t-421.5 162h-201v-1159z" />
<glyph unicode="E" horiz-adv-x="960" d="M117 0v1477h755v-156h-577v-436h496v-154h-496v-575h606v-156h-784z" />
<glyph unicode="F" horiz-adv-x="823" d="M117 0v1477h692v-156h-514v-436h446v-154h-446v-731h-178z" />
<glyph unicode="G" horiz-adv-x="1603" d="M66 727q0 332 223 553t555 221q258 0 465 -160q43 -33 70.5 -60.5t78.5 -88.5l-129 -123q-33 43 -60.5 72.5t-58.5 54.5q-170 141 -374 141q-244 0 -416 -176t-172 -426q0 -260 167 -429t421 -169q217 0 353 119t167 336h-533v153h721l2 -63q0 -309 -200.5 -510 t-514.5 -201q-334 0 -549.5 214t-215.5 542z" />
<glyph unicode="H" horiz-adv-x="1329" d="M117 0v1477h178v-592h737v592h176v-1477h-176v731h-737v-731h-178z" />
<glyph unicode="I" horiz-adv-x="413" d="M117 0v1477h178v-1477h-178z" />
<glyph unicode="J" horiz-adv-x="679" d="M-59 80l102 133q80 -78 168 -78q113 0 151 109q14 35 18.5 75.5t4.5 141.5v1016h178v-1033q0 -113 -10 -174t-35 -118q-82 -178 -305 -179q-78 0 -143.5 26t-128.5 81z" />
<glyph unicode="K" horiz-adv-x="1089" d="M117 0v1477h178v-1477h-178zM301 772l580 705h229l-590 -707l649 -770h-225z" />
<glyph unicode="L" horiz-adv-x="774" d="M117 0v1477h178v-1321h477v-156h-655z" />
<glyph unicode="M" horiz-adv-x="1744" d="M29 0l209 1477h129l460 -1084q31 -68 45 -166q14 102 46 166l458 1084h131l207 -1477h-180l-123 977q-4 25 -6 70t-2 94v10q-12 -72 -45 -156l-428 -995h-115l-428 995q-20 45 -28.5 75t-18.5 81v-16q0 -43 -1 -79t-7 -79l-123 -977h-180z" />
<glyph unicode="N" horiz-adv-x="1533" d="M117 0v1477h151l901 -1090l56 -72q12 -25 18 -34q16 -29 23 -45q-27 121 -27 192v1049h178v-1477h-143l-914 1092q-39 47 -54 71.5t-38 71.5q27 -123 27 -176v-1059h-178z" />
<glyph unicode="O" horiz-adv-x="1685" d="M66 737q0 328 223 549t553 221t553 -221t223 -549t-222 -548t-552 -220q-332 0 -555 219t-223 549zM244 737q0 -256 172 -430t428 -174q252 0 425 175t173 429q0 256 -172 430t-426 174q-256 0 -428 -174t-172 -430z" />
<glyph unicode="P" horiz-adv-x="940" d="M117 0v1477h338q104 0 170 -13q139 -31 220 -136t81 -261q0 -184 -115 -294.5t-307 -110.5h-209v-662h-178zM295 817h158q139 0 215.5 66.5t76.5 187.5q0 250 -292 250h-158v-504z" />
<glyph unicode="Q" horiz-adv-x="1683" d="M66 737q0 330 222 550t552 220t551 -219t221 -549q0 -154 -56 -299q-23 -61 -52.5 -109t-90.5 -124l203 -182l-135 -127l-199 206l-82 -51q-158 -84 -358 -84q-332 0 -554 220.5t-222 547.5zM244 737q0 -258 171 -431t425 -173q90 0 160.5 20.5t156.5 71.5l-334 316 l123 133l336 -346q49 59 69.5 92t37.5 78q47 119 47 241q0 254 -172 428t-424 174t-424 -174t-172 -430z" />
<glyph unicode="R" horiz-adv-x="991" d="M117 0v1477h325q53 0 100.5 -4.5t86.5 -10.5q139 -35 219 -143.5t80 -263.5q0 -330 -355 -402l447 -653h-217l-508 764v-764h-178zM295 770h137q147 0 231.5 76t84.5 209q0 266 -306 266h-147v-551z" />
<glyph unicode="S" horiz-adv-x="1030" d="M-6 276l143 95q127 -236 350 -236q123 0 208 79t85 194q0 100 -75 159q-61 45 -240 121q-133 55 -152 64q-61 29 -116 77q-115 104 -115 267q0 176 122 289.5t308 113.5q158 0 274 -84q49 -37 80 -71.5t66 -98.5l-152 -78q-82 176 -268 176q-104 0 -175 -66.5t-71 -162.5 q0 -82 56 -141q31 -33 70.5 -54.5t164.5 -70.5q180 -72 264 -137q141 -104 142 -289q0 -199 -136.5 -325t-353.5 -126q-323 0 -479 305z" />
<glyph unicode="T" horiz-adv-x="862" d="M-29 1307v170h920v-170h-373v-1307h-178v1307h-369z" />
<glyph unicode="U" horiz-adv-x="1308" d="M117 571v906h178v-885q0 -117 10 -193q20 -123 113.5 -194.5t234.5 -71.5q184 0 277 111q49 55 65.5 124.5t16.5 223.5v885h178v-906q0 -143 -16 -225q-37 -172 -178.5 -274.5t-340.5 -102.5q-252 0 -403 156q-78 78 -106.5 172t-28.5 274z" />
<glyph unicode="V" horiz-adv-x="1110" d="M-59 1477h192l379 -1067q12 -29 22.5 -71t20.5 -114q14 102 43 185l379 1067h192l-546 -1477h-136z" />
<glyph unicode="W" horiz-adv-x="1945" d="M-45 1477h190l342 -1055q20 -63 28.5 -99t8.5 -90q8 61 17.5 117t13.5 72l346 1055h141l347 -1055q18 -57 32 -189q6 66 15 99q6 45 22 90l342 1055h191l-498 -1477h-139l-338 1018q-29 98 -43 209q-18 -131 -45 -209l-334 -1018h-139z" />
<glyph unicode="X" horiz-adv-x="1208" d="M-16 0l495 795l-418 682h209l230 -385l43 -74q18 -31 29.5 -64.5t31.5 -99.5q18 66 29.5 93.5t32.5 70.5l43 74l229 385h211l-418 -682l494 -795h-209l-328 547l-39 69q-16 31 -25.5 61t-19.5 83q-8 -47 -17 -80t-26 -64l-41 -69l-327 -547h-209z" />
<glyph unicode="Y" horiz-adv-x="974" d="M-59 1477h204l297 -549q20 -41 30.5 -69t16.5 -68q4 37 10.5 63.5t35.5 75.5l292 547h207l-456 -822v-655h-177v655z" />
<glyph unicode="Z" horiz-adv-x="1095" d="M29 0v117l719 1118q25 37 41 57.5t55 50.5q-37 -10 -73 -16t-79 -6h-590v156h930v-109l-715 -1120q-47 -70 -104 -119q45 14 75.5 20.5t69.5 6.5h701v-156h-1030z" />
<glyph unicode="[" horiz-adv-x="440" d="M117 -158v1792h309v-141h-137v-1511h137v-140h-309z" />
<glyph unicode="\" horiz-adv-x="657" d="M96 1475h156l260 -1475h-158z" />
<glyph unicode="]" horiz-adv-x="440" d="M16 -18h138v1511h-138v141h308v-1792h-308v140z" />
<glyph unicode="^" horiz-adv-x="700" d="M2 1210l350 234l346 -236l-80 -125l-266 183l-274 -170z" />
<glyph unicode="_" horiz-adv-x="1005" d="M96 0h738v-61h-738v61z" />
<glyph unicode="`" horiz-adv-x="499" d="M2 1370l133 109l262 -314l-104 -88z" />
<glyph unicode="a" horiz-adv-x="1198" d="M66 492q0 221 141 372.5t346 151.5q174 0 301 -117q26 -27 55 -68v158h172v-989h-172v143q-125 -176 -348 -176q-213 0 -354 149.5t-141 375.5zM244 475q0 -154 98 -256t242 -102q145 0 240.5 107.5t95.5 271.5q0 158 -97.5 263t-244.5 105q-141 0 -237.5 -106 t-96.5 -266v-17z" />
<glyph unicode="b" horiz-adv-x="1204" d="M117 0v1477h172v-641q72 94 154.5 137t195.5 43q217 0 358.5 -147.5t141.5 -374.5q0 -221 -141.5 -373t-346.5 -152q-170 0 -297 111q-31 27 -65 76v-156h-172zM293 489q0 -160 92 -258t246 -98q141 0 233 102.5t92 262.5q0 156 -96.5 260t-241.5 104q-147 0 -236 -103.5 t-89 -269.5z" />
<glyph unicode="c" horiz-adv-x="929" d="M66 483q0 231 153.5 381t390.5 150q90 0 146.5 -12.5t138.5 -53.5l-53 -160q-66 37 -119 51.5t-117 14.5q-156 0 -259 -105.5t-103 -265.5q0 -156 100 -256t258 -100q55 0 125 16q31 12 49.5 20.5t63.5 33.5l61 -150l-65 -31q-55 -27 -118 -39t-132 -12 q-227 0 -373.5 146.5t-146.5 371.5z" />
<glyph unicode="d" horiz-adv-x="1204" d="M66 485q0 231 141 381t364 150q113 0 192 -41t155 -137v639h167v-1477h-167v160q-115 -190 -363 -191q-215 0 -352 143.5t-137 372.5zM252 487q0 -158 94 -260t240 -102q152 0 244 102.5t92 272.5q0 158 -94 258t-244 100q-143 0 -237.5 -104.5t-94.5 -266.5z" />
<glyph unicode="e" horiz-adv-x="1122" d="M66 487q0 231 142 380t363 149q215 0 353.5 -146.5t138.5 -375.5l-2 -78h-813q20 -139 108 -219t219 -80q201 0 308 205l155 -89q-86 -139 -195.5 -202.5t-267.5 -63.5q-227 0 -368 143.5t-141 376.5zM248 565h624q0 135 -84 219t-217 84q-127 0 -214 -80.5t-109 -222.5z " />
<glyph unicode="f" horiz-adv-x="481" d="M0 842v147h145v166q0 164 86 256t240 92q72 0 158 -28l-43 -152q-51 27 -103 27q-90 0 -137 -66q-29 -41 -29 -156v-139h269v-147h-269v-842h-172v842h-145z" />
<glyph unicode="g" horiz-adv-x="1193" d="M66 487q0 227 139 379t350 152q193 0 309 -123q20 -27 23 -31q12 -21 18 -33v158h168v-946q0 -223 -133 -342t-385 -119q-172 0 -301 90q-57 41 -92 84t-68 113l156 72q104 -207 336 -207q141 0 230 80t89 206v119q-117 -168 -340 -168q-217 0 -358 145.5t-141 370.5z M248 496q0 -164 96 -270.5t246 -106.5q145 0 239.5 104.5t94.5 270.5t-97 273t-249 107q-145 0 -237.5 -106t-92.5 -272z" />
<glyph unicode="h" horiz-adv-x="1071" d="M117 0v1477h172v-627q125 164 317 164q182 0 277 -119q37 -49 53 -112.5t16 -164.5v-618h-178v590l-6 102q-14 76 -73.5 121t-141.5 45q-125 0 -205 -100q-59 -80 -59 -232v-526h-172z" />
<glyph unicode="i" horiz-adv-x="405" d="M88 1276q0 47 35 82t84 35t84 -35t35 -82q0 -51 -35 -86t-84 -35t-84 35t-35 86zM121 0v987h172v-987h-172z" />
<glyph unicode="j" horiz-adv-x="415" d="M-170 -377l45 160q57 -25 107 -25q106 0 133 88q14 43 14 179v962h170v-991q0 -174 -34 -249t-101.5 -114t-159.5 -39q-88 0 -174 29zM98 1276q0 49 34 83t83 34t84 -33t35 -82q0 -51 -35 -86t-84 -35q-51 0 -84 35t-33 84z" />
<glyph unicode="k" horiz-adv-x="882" d="M117 0v1477h172v-1477h-172zM295 537l387 450h227l-401 -459l457 -528h-226z" />
<glyph unicode="l" horiz-adv-x="405" d="M117 0v1477h172v-1477h-172z" />
<glyph unicode="m" horiz-adv-x="1589" d="M117 0v989h172v-160q61 94 130.5 137.5t164.5 43.5q201 0 278 -168q100 170 293 170q168 0 256 -117q37 -47 49.5 -101.5t12.5 -164.5v-629h-170v598l-5 100q-12 70 -61 111t-123 41q-106 0 -169.5 -74t-63.5 -198v-578h-168v598l-4 94q-10 72 -60.5 115t-124.5 43 q-109 0 -172 -78t-63 -215v-557h-172z" />
<glyph unicode="n" horiz-adv-x="1069" d="M117 0v989h172v-164q119 190 317 191q160 0 258 -103q86 -92 86 -288v-625h-168v584q0 72 -8 106q-12 78 -73.5 127t-147.5 49q-121 0 -192.5 -86t-71.5 -231v-549h-172z" />
<glyph unicode="o" horiz-adv-x="1202" d="M66 492q0 227 151.5 374.5t382.5 147.5t384 -148.5t153 -373.5t-151.5 -373t-385.5 -148q-231 0 -382.5 148t-151.5 373zM240 492q0 -158 102 -262.5t258 -104.5q158 0 260.5 104.5t102.5 262.5t-102.5 264t-260.5 106q-154 0 -257 -105.5t-103 -264.5z" />
<glyph unicode="p" horiz-adv-x="1200" d="M117 -385v1374h172v-182q123 209 362 209q213 0 348.5 -145.5t135.5 -376.5q0 -227 -137.5 -377t-348.5 -150q-188 0 -299 115q-18 18 -31.5 35.5t-29.5 50.5v-551zM289 496q0 -168 93 -271.5t245 -103.5q143 0 235 104.5t92 266.5q0 164 -91 267t-236 103 q-152 0 -245 -101.5t-93 -264.5z" />
<glyph unicode="q" horiz-adv-x="1191" d="M66 487q0 227 137 377t348 150q111 0 191.5 -40t160.5 -134v149h168v-1372l-168 -2v539q-70 -96 -154.5 -141.5t-201.5 -45.5q-211 0 -346 145.5t-135 374.5zM242 487q0 -160 95 -265t241 -105q145 0 237 104.5t92 272.5q0 162 -94.5 266t-241.5 104q-145 0 -237 -106.5 t-92 -270.5z" />
<glyph unicode="r" horiz-adv-x="606" d="M117 0v989h172v-190q90 215 289 215q47 0 102 -19l-47 -182q-47 18 -94 18q-115 0 -193 -92q-33 -41 -45 -84t-12 -114v-541h-172z" />
<glyph unicode="s" horiz-adv-x="776" d="M6 203l154 73q66 -159 213 -159h2q76 0 125 45t49 110q0 57 -39 90q-18 20 -47 36t-103 44q-72 33 -90 41q-61 31 -100 60q-94 66 -94 188q0 121 88 201t223 80q223 0 322 -195l-152 -76q-59 123 -160 123q-61 0 -102 -36.5t-41 -90.5q0 -72 111 -114l94 -39 q123 -49 178 -97q90 -76 90 -198q0 -139 -100.5 -229.5t-253.5 -90.5q-250 1 -367 234z" />
<glyph unicode="t" horiz-adv-x="540" d="M-16 842v147h145v268h170v-268h274v-147h-274v-508v-19q0 -74 2 -92t14 -39q29 -55 117 -55q53 0 117 29l43 -154q-102 -29 -191 -29q-158 0 -233 113q-14 20 -24.5 50t-12.5 57l-2 131v516h-145z" />
<glyph unicode="u" horiz-adv-x="1081" d="M117 393v596h172v-577q0 -78 8 -111q43 -168 244 -168q121 0 190 70q33 35 47.5 81t14.5 128v577h170v-596q0 -94 -19 -155q-35 -119 -145.5 -193t-257.5 -74q-176 0 -297 103q-68 55 -97.5 130t-29.5 189z" />
<glyph unicode="v" horiz-adv-x="868" d="M-59 989h186l258 -614q10 -20 16.5 -42t13.5 -47.5t11 -46t8 -44.5q12 92 49 180l258 614h187l-436 -989h-117z" />
<glyph unicode="w" horiz-adv-x="1458" d="M-45 989h188l217 -604q12 -35 23.5 -79t19.5 -89q8 51 14.5 80t28.5 88l220 604h127l219 -604q23 -61 30 -89t15 -79q12 74 16 95.5t25 72.5l217 604h188l-385 -989h-125l-211 573q-27 68 -35 101t-16 92q-14 -74 -18 -91.5t-35 -101.5l-213 -573h-121z" />
<glyph unicode="x" horiz-adv-x="911" d="M-45 0l403 520l-362 469h217l184 -256q29 -43 39 -63.5t21 -59.5q10 43 18 59.5t43 63.5l182 256h218l-365 -469l403 -520h-213l-217 289q-43 57 -69 141q-25 -80 -72 -141l-215 -289h-215z" />
<glyph unicode="y" horiz-adv-x="856" d="M-59 989h184l258 -651q10 -27 23.5 -66t23.5 -98q12 84 49 170l256 645h189l-441 -1065q-70 -168 -112 -223q-84 -106 -254 -107q-68 0 -148 23l43 158q53 -18 101 -19q102 0 153 86q8 16 27.5 59.5t46.5 108.5z" />
<glyph unicode="z" horiz-adv-x="917" d="M10 0v104l592 676q45 49 117 97q-111 -35 -154 -35h-485v147h825v-100l-581 -670q-51 -59 -123 -108q106 36 169 36h3h520v-147h-883z" />
<glyph unicode="{" horiz-adv-x="700" d="M96 737q55 0 92 41t37 107v676q0 145 166 145h160v-92h-25q-72 0 -95 -23.5t-23 -95.5v-594q0 -63 -41 -110.5t-105 -53.5q63 -6 104.5 -53t41.5 -111v-593q0 -72 23.5 -95.5t94.5 -23.5h25v-92h-160q-166 0 -166 145v676q0 63 -36 105t-93 42z" />
<glyph unicode="|" horiz-adv-x="376" d="M96 0v1475h156v-1475h-156z" />
<glyph unicode="}" horiz-adv-x="700" d="M96 -139h25q72 0 95.5 23.5t23.5 95.5v593q0 63 41 110.5t104 53.5q-63 6 -104 53.5t-41 110.5v594q0 72 -23.5 95.5t-95.5 23.5h-25v92h160q166 0 166 -145v-676q0 -63 36 -105.5t93 -42.5q-55 0 -92 -41t-37 -106v-676q0 -145 -166 -145h-160v92z" />
<glyph unicode="~" horiz-adv-x="665" d="M2 1587v144q39 14 74 20t69 6q53 0 117 -14l90 -21q39 -8 78 -14t64 -6q90 0 172 49v-149q-49 -18 -86 -26.5t-80 -8.5q-55 0 -98.5 8t-63.5 12l-92 21q-51 10 -88 10q-74 0 -156 -31z" />
<glyph unicode="&#xa1;" horiz-adv-x="475" d="M117 1376q0 49 34.5 86t86.5 37q51 0 85.5 -34.5t34.5 -84.5q0 -49 -34.5 -86t-83.5 -37t-86 35t-37 84zM156 0v1130h161v-1130h-161z" />
<glyph unicode="&#xa2;" horiz-adv-x="929" d="M66 485q0 104 38.5 201.5t111.5 172.5t167 114q43 16 69.5 23.5t77.5 15.5v157h101v-155q57 0 81.5 -4t64.5 -16.5t69 -22.5q12 -4 49 -23l-53 -160q-35 18 -55.5 27.5t-47.5 20.5q-20 4 -50 8t-60 4v-721l98 16q33 12 50.5 20.5t62.5 33.5l61 -150q-47 -25 -72.5 -36 t-60.5 -19q-53 -16 -72.5 -20.5t-68.5 -4.5v-164h-101v164q-47 6 -64.5 10.5t-47.5 14.5q-160 53 -254 185t-94 308zM246 479q0 -133 77.5 -228t204.5 -118v711q-133 -33 -207.5 -128t-74.5 -237z" />
<glyph unicode="&#xa3;" horiz-adv-x="1142" d="M59 0v162l197 356h-195v158h289l232 414q78 135 130 201.5t111.5 108.5t120 66.5t141.5 38.5v-170q-115 -23 -185.5 -84t-160.5 -219l-200 -356h276v-158h-369l-196 -358h831v-160h-1022z" />
<glyph unicode="&#xa4;" horiz-adv-x="1013" d="M96 436l127 125q-59 82 -59 180q0 94 57 177l-123 118q25 37 64 72l127 -127q78 59 180 59q100 0 178 -57l125 127q16 -12 29.5 -24.5t25.5 -28.5l15 -21l-127 -118q57 -78 57 -179q0 -98 -59 -180l127 -127l-15 -16l-16 -15l-39 -34l-123 127q-78 -59 -178 -60 q-100 0 -178 60l-129 -125q-18 14 -34 29t-32 38zM264 737q0 -84 59.5 -143t145.5 -59q84 0 143.5 58t59.5 144q0 84 -59.5 143.5t-143.5 59.5t-144.5 -58.5t-60.5 -144.5z" />
<glyph unicode="&#xa5;" horiz-adv-x="1239" d="M74 1477h205l296 -549q16 -33 28.5 -69t19.5 -68q4 47 11 70.5t32 68.5l295 547h206l-354 -633h291v-137h-367l-26 -52v-39h397v-135h-397v-481h-176v481h-404v142h404v32l-33 50h-371v139h301z" />
<glyph unicode="&#xa7;" horiz-adv-x="1122" d="M70 612q0 199 225 326q-35 37 -45 61q-43 80 -43 185q0 139 102.5 229t261.5 90q170 0 277.5 -90t107.5 -242l-163 -20q-16 86 -76 136t-146 50q-76 0 -130 -48t-54 -118q0 -57 41 -122.5t100 -102.5l344 -209q180 -111 181 -293q0 -111 -60.5 -201.5t-173.5 -148.5 q82 -94 82 -203q0 -145 -102.5 -235t-268.5 -90q-162 0 -258 80t-112 233l176 15q0 -74 54 -119t140 -45q80 0 134.5 42t54.5 101t-35 122.5t-88 98.5l-367 234q-72 47 -115.5 123.5t-43.5 160.5zM252 623q0 -57 28.5 -106.5t79.5 -80.5l353 -213q72 31 116.5 90.5 t44.5 126.5q0 45 -22 87t-59 65l-379 229q-162 -70 -162 -198z" />
<glyph unicode="&#xa8;" horiz-adv-x="530" d="M-59 1202q0 49 34.5 82t83.5 33t82 -33t33 -82t-32.5 -84t-82.5 -35q-49 0 -83.5 35t-34.5 84zM354 1202q0 47 34 81t83 34q51 0 86 -33t35 -82t-35 -84t-86 -35q-47 0 -82 35t-35 84z" />
<glyph unicode="&#xa9;" horiz-adv-x="1908" d="M119 739q0 317 223 541q109 109 251 166t290 57q152 0 289 -55t248.5 -166t170 -252t58.5 -291q0 -154 -55.5 -290t-167 -247.5t-253 -170t-290.5 -58.5q-152 0 -290 56.5t-251 169.5q-223 223 -223 540zM221 739q0 -133 51.5 -257t145.5 -219t215 -145t252 -50 q127 0 248.5 50t216 145t144.5 218t50 256q0 131 -49 255t-144.5 220.5t-216 146.5t-251.5 50q-127 0 -248 -49t-216 -145.5t-146.5 -218.5t-51.5 -257zM414 721q0 47 8 96t27 98q53 145 179 231.5t285 86.5q35 0 56.5 -4t31.5 -4q138 -25 238 -111l-61 -90q-78 68 -181 90 q-20 2 -37.5 5t-39.5 3q-162 0 -271.5 -113.5t-109.5 -285.5l6 -76q27 -137 132 -221t241 -84q51 0 104 14.5t102 44.5l50 37l63 -88q-68 -55 -146.5 -86t-170.5 -31q-215 0 -360.5 141.5t-145.5 346.5z" />
<glyph unicode="&#xaa;" horiz-adv-x="987" d="M96 1139q0 150 97.5 254t230.5 104q31 0 61 -6q123 -27 179 -125l10 -16l6 -15v140h135l2 -678h-137v149l-6 -16q-31 -68 -98.5 -109t-151.5 -41q-31 0 -60.5 6.5t-64.5 20.5q-162 66 -197 254q-6 41 -6 78zM117 571v125h700v-125h-700zM236 1139l6 -47q18 -98 94 -152 q57 -39 125 -39q66 0 125 41q74 53 92 148q4 16 4 49t-4 49q-25 123 -127 170q-41 20 -92 20q-45 0 -86 -18q-109 -49 -133 -178z" />
<glyph unicode="&#xab;" horiz-adv-x="1212" d="M74 498l547 477l106 -117l-424 -356l422 -371l-104 -123zM487 498l547 477l105 -117l-422 -356l422 -371l-105 -123z" />
<glyph unicode="&#xac;" horiz-adv-x="1284" d="M96 737v156h996v-451h-129v295h-867z" />
<glyph unicode="&#xad;" horiz-adv-x="622" d="M74 414v164h475v-164h-475z" />
<glyph unicode="&#xae;" horiz-adv-x="1908" d="M119 739q0 317 223 541q109 109 251 166t290 57q152 0 289 -55t248.5 -166t170 -252t58.5 -291q0 -154 -55.5 -290t-167 -247.5t-253 -170t-290.5 -58.5q-152 0 -290 56.5t-251 169.5q-223 223 -223 540zM221 739q0 -133 51.5 -257t145.5 -219t215 -145t252 -50 q127 0 248.5 50t216 145t144.5 218t50 256q0 131 -49 255t-144.5 220.5t-216 146.5t-251.5 50q-127 0 -248 -49t-216 -145.5t-146.5 -218.5t-51.5 -257zM643 268v961h225q84 0 129 -12.5t86 -45.5q68 -55 86 -147q6 -35 7 -63q0 -102 -59.5 -169t-160.5 -81l-32 -2l301 -441 h-146l-313 473v-473h-123zM766 782h80q100 0 152.5 44t52.5 126t-49.5 128t-143.5 46h-92v-344z" />
<glyph unicode="&#xaf;" horiz-adv-x="661" d="M-2 1124v133h664v-133h-664z" />
<glyph unicode="&#xb1;" horiz-adv-x="1216" d="M90 39v139h946v-139h-946zM90 539v139h404v250h139v-250h403v-139h-403v-250h-139v250h-404z" />
<glyph unicode="&#xb4;" horiz-adv-x="464" d="M104 1167l263 318l131 -105l-295 -295z" />
<glyph unicode="&#xb5;" horiz-adv-x="1275" d="M150 -285l4 119l4 182l-2 207l-4 195v502h188v-607q0 -145 28.5 -194t102.5 -49q117 0 194.5 165.5t77.5 417.5v267h189v-672q0 -92 19.5 -135t58.5 -43q41 0 64.5 42t23.5 126v28h43l2 -18v-27q0 -113 -48 -176t-137 -63q-100 0 -154 88t-54 264q-47 -182 -126 -267 t-198 -85q-86 0 -150 53q-57 55 -81 158l-2 -58q0 -133 65.5 -290.5t65.5 -186.5q0 -41 -22.5 -63.5t-63.5 -22.5q-47 0 -67.5 35t-20.5 108z" />
<glyph unicode="&#xb6;" horiz-adv-x="1318" d="M96 1075q0 166 115 283t281 117h632v-107h-632q-119 0 -203 -86t-84 -211q0 -121 84 -205t203 -84h141v496h112v-1278h-112v676h-141q-162 0 -279 116.5t-117 282.5zM881 0v1278h112v-1278h-112z" />
<glyph unicode="&#xb7;" horiz-adv-x="370" d="M59 496q0 53 36 89t89 36q51 0 88 -37t37 -90q0 -51 -35.5 -87t-89.5 -36q-51 0 -88 37t-37 88z" />
<glyph unicode="&#xb8;" horiz-adv-x="360" d="M45 -334l184 279l131 -72l-198 -264z" />
<glyph unicode="&#xba;" horiz-adv-x="987" d="M96 1141q0 41 8 73q27 131 124.5 212t224.5 81q74 0 147 -30q100 -41 159.5 -131.5t59.5 -202.5q0 -18 -3 -41t-5 -35q-20 -109 -96 -185.5t-185 -99.5q-37 -6 -73 -6q-35 0 -72 6q-109 23 -184.5 98.5t-98.5 186.5zM109 571v125h698v-125h-698zM233 1141l3 -43 q23 -125 129 -174q43 -20 94 -21q80 0 142.5 52.5t76.5 140.5q4 33 4 47q0 125 -96 194q-59 43 -131 43q-43 0 -90 -20q-106 -51 -129 -174z" />
<glyph unicode="&#xbb;" horiz-adv-x="1216" d="M74 133l424 363l-422 372l104 115l549 -494l-553 -479zM487 133l424 363l-422 372l105 115l549 -494l-551 -479z" />
<glyph unicode="&#xbf;" horiz-adv-x="1017" d="M45 444q0 293 313 437l88 41l21 10l14 8q23 18 23 78v110h168v-145q0 -49 -4 -69.5t-20.5 -45t-82.5 -55.5l-116 -53q-133 -63 -187.5 -134t-54.5 -186q0 -139 88 -229t229 -90q131 0 215 75.5t101 206.5l164 -41q-43 -188 -167 -289.5t-309 -101.5q-211 0 -347 134.5 t-136 338.5zM467 1374q0 49 35 86t88 37q51 0 85 -36t34 -87q0 -47 -35 -84t-84 -37q-53 0 -88 35t-35 86z" />
<glyph unicode="&#xc0;" horiz-adv-x="1265" d="M-59 0l614 1477h156l616 -1477h-190l-172 410h-664l-170 -410h-190zM365 565h536l-225 572q-31 76 -43 153q-6 -47 -14.5 -77.5t-26.5 -75.5zM385 1931l133 109l262 -314l-104 -88z" />
<glyph unicode="&#xc1;" horiz-adv-x="1265" d="M-59 0l614 1477h156l616 -1477h-190l-172 410h-664l-170 -410h-190zM365 565h536l-225 572q-31 76 -43 153q-6 -47 -14.5 -77.5t-26.5 -75.5zM503 1728l263 318l131 -105l-295 -295z" />
<glyph unicode="&#xc2;" horiz-adv-x="1265" d="M-59 0l614 1477h156l616 -1477h-190l-172 410h-664l-170 -410h-190zM285 1771l350 234l346 -236l-80 -125l-266 183l-274 -170zM365 565h536l-225 572q-31 76 -43 153q-6 -47 -14.5 -77.5t-26.5 -75.5z" />
<glyph unicode="&#xc3;" horiz-adv-x="1265" d="M-59 0l614 1477h156l616 -1477h-190l-172 410h-664l-170 -410h-190zM332 1671v139q41 14 69.5 19.5t61.5 5.5q25 0 59.5 -6t45.5 -8l81 -21q80 -18 130 -18q51 0 81.5 9t73.5 36v-144q-76 -31 -149 -30q-68 0 -148 18l-84 18q-41 12 -80 13q-61 0 -141 -31zM365 565h536 l-225 572q-31 76 -43 153q-6 -47 -14.5 -77.5t-26.5 -75.5z" />
<glyph unicode="&#xc4;" horiz-adv-x="1265" d="M-59 0l614 1477h156l616 -1477h-190l-172 410h-664l-170 -410h-190zM279 1536q0 49 34.5 86t87.5 37q49 0 84 -35t35 -88q0 -49 -34.5 -84t-86.5 -35q-51 0 -85.5 35t-34.5 84zM365 565h536l-225 572q-31 76 -43 153q-6 -47 -14.5 -77.5t-26.5 -75.5zM745 1536 q0 49 35 86t86 37t86 -35t35 -86t-34.5 -86t-84.5 -35q-49 0 -86 35t-37 84z" />
<glyph unicode="&#xc5;" horiz-adv-x="1259" d="M-59 0l600 1415q-59 43 -82 79t-23 85q0 86 57.5 145.5t141.5 59.5q82 0 139 -59.5t57 -147.5q0 -53 -20 -87t-86 -81l594 -1409h-189l-167 410h-666l-168 -410h-188zM362 565h535l-225 572q-12 35 -24.5 76.5t-16.5 76.5q-12 -80 -41 -153zM535 1587q0 -41 28.5 -71.5 t69.5 -30.5t71.5 30.5t30.5 71.5t-28.5 72t-71.5 31q-41 0 -70.5 -30t-29.5 -73z" />
<glyph unicode="&#xc6;" horiz-adv-x="1751" d="M-59 0l909 1477h813v-156h-578v-436l496 6l-2 -160h-494v-575h607v-156h-785v410h-510l-262 -410h-194zM487 565h420v717z" />
<glyph unicode="&#xc7;" horiz-adv-x="1347" d="M66 725q0 334 219 555t553 221q63 0 127.5 -10t128.5 -29q53 -18 96 -40.5t115 -73.5l-99 -144l-76 53q-129 78 -292 78q-252 0 -421 -173t-169 -427q0 -256 168 -428t420 -172q115 0 231 47q61 25 137 84l99 -147l-78 -47q-180 -102 -404 -103q-322 0 -538.5 217 t-216.5 539zM569 -334l187 279l129 -72l-199 -264z" />
<glyph unicode="&#xc8;" horiz-adv-x="960" d="M117 0v1477h755v-156h-577v-436h496v-154h-496v-575h606v-156h-784zM231 1931l133 109l262 -314l-104 -88z" />
<glyph unicode="&#xc9;" horiz-adv-x="960" d="M117 0v1477h755v-156h-577v-436h496v-154h-496v-575h606v-156h-784zM352 1728l263 318l131 -105l-295 -295z" />
<glyph unicode="&#xca;" horiz-adv-x="960" d="M117 0v1477h755v-156h-577v-436h496v-154h-496v-575h606v-156h-784zM131 1771l350 234l346 -236l-80 -125l-266 183l-274 -170z" />
<glyph unicode="&#xcb;" horiz-adv-x="960" d="M117 0v1477h755v-156h-577v-436h496v-154h-496v-575h606v-156h-784zM156 1763q0 49 34.5 82t83.5 33t82 -33t33 -82t-32.5 -84t-82.5 -35q-49 0 -83.5 35t-34.5 84zM569 1763q0 47 34 81t83 34q51 0 86 -33t35 -82t-35 -84t-86 -35q-47 0 -82 35t-35 84z" />
<glyph unicode="&#xcc;" horiz-adv-x="413" d="M-41 1931l133 109l262 -314l-104 -88zM117 0v1477h178v-1477h-178z" />
<glyph unicode="&#xcd;" horiz-adv-x="413" d="M79 1728l263 318l131 -105l-295 -295zM117 0v1477h178v-1477h-178z" />
<glyph unicode="&#xce;" horiz-adv-x="413" d="M-141 1771l350 234l346 -236l-80 -125l-266 183l-274 -170zM117 0v1477h178v-1477h-178z" />
<glyph unicode="&#xcf;" horiz-adv-x="413" d="M-116 1763q0 49 34.5 82t83.5 33t82 -33t33 -82t-32.5 -84t-82.5 -35q-49 0 -83.5 35t-34.5 84zM117 0v1477h178v-1477h-178zM297 1763q0 47 34 81t83 34q51 0 86 -33t35 -82t-35 -84t-86 -35q-47 0 -82 35t-35 84z" />
<glyph unicode="&#xd1;" horiz-adv-x="1533" d="M117 0v1477h151l901 -1090l56 -72q12 -25 18 -34q16 -29 23 -45q-27 121 -27 192v1049h178v-1477h-143l-914 1092q-39 47 -54 71.5t-38 71.5q27 -123 27 -176v-1059h-178zM465 1671v139q41 14 69.5 19.5t61.5 5.5q25 0 59.5 -6t45.5 -8l81 -21q80 -18 130 -18 q51 0 81.5 9t73.5 36v-144q-76 -31 -149 -30q-68 0 -148 18l-84 18q-41 12 -80 13q-61 0 -141 -31z" />
<glyph unicode="&#xd2;" horiz-adv-x="1685" d="M66 737q0 328 223 549t553 221t553 -221t223 -549t-222 -548t-552 -220q-332 0 -555 219t-223 549zM244 737q0 -256 172 -430t428 -174q252 0 425 175t173 429q0 256 -172 430t-426 174q-256 0 -428 -174t-172 -430zM594 1931l133 109l262 -314l-104 -88z" />
<glyph unicode="&#xd3;" horiz-adv-x="1685" d="M66 737q0 328 223 549t553 221t553 -221t223 -549t-222 -548t-552 -220q-332 0 -555 219t-223 549zM244 737q0 -256 172 -430t428 -174q252 0 425 175t173 429q0 256 -172 430t-426 174q-256 0 -428 -174t-172 -430zM714 1728l263 318l131 -105l-295 -295z" />
<glyph unicode="&#xd4;" horiz-adv-x="1685" d="M66 737q0 328 223 549t553 221t553 -221t223 -549t-222 -548t-552 -220q-332 0 -555 219t-223 549zM244 737q0 -256 172 -430t428 -174q252 0 425 175t173 429q0 256 -172 430t-426 174q-256 0 -428 -174t-172 -430zM494 1771l350 234l346 -236l-80 -125l-266 183 l-274 -170z" />
<glyph unicode="&#xd5;" horiz-adv-x="1685" d="M66 737q0 328 223 549t553 221t553 -221t223 -549t-222 -548t-552 -220q-332 0 -555 219t-223 549zM244 737q0 -256 172 -430t428 -174q252 0 425 175t173 429q0 256 -172 430t-426 174q-256 0 -428 -174t-172 -430zM541 1671v139q41 14 69.5 19.5t61.5 5.5q25 0 59.5 -6 t45.5 -8l81 -21q80 -18 130 -18q51 0 81.5 9t73.5 36v-144q-76 -31 -149 -30q-68 0 -148 18l-84 18q-41 12 -80 13q-61 0 -141 -31z" />
<glyph unicode="&#xd6;" horiz-adv-x="1685" d="M66 737q0 328 223 549t553 221t553 -221t223 -549t-222 -548t-552 -220q-332 0 -555 219t-223 549zM236 1538q0 51 34.5 88t85.5 37t87 -36t36 -89q0 -49 -36.5 -84t-88.5 -35q-49 0 -83.5 35t-34.5 84zM244 737q0 -256 172 -430t428 -174q252 0 425 175t173 429 q0 256 -172 430t-426 174q-256 0 -428 -174t-172 -430zM1196 1538q0 51 35 88t86 37q57 0 95 -36t38 -89q0 -51 -38 -85t-93 -34q-49 0 -86 35t-37 84z" />
<glyph unicode="&#xd8;" horiz-adv-x="1693" d="M66 27l202 196q-33 41 -47 58q-29 35 -35 45q-55 78 -87.5 188.5t-32.5 222.5q0 326 225 549t553 223q74 0 144.5 -12t139.5 -41q63 -23 113.5 -54.5t130.5 -98.5l197 188l59 -59l-196 -191q27 -31 47 -57.5t26 -38.5q55 -82 84 -187.5t29 -220.5q0 -326 -223.5 -549 t-550.5 -223q-154 0 -287 53q-63 25 -106 51.5t-123 90.5l-201 -203zM248 741q0 -172 86 -321l53 -76l860 846q-55 41 -94 63.5t-90 42t-107.5 31.5t-107.5 12q-252 0 -426 -174t-174 -424zM455 285q49 -45 89 -72t81 -41q98 -39 217 -39q254 0 427 175t173 431 q0 188 -84 310l-53 69z" />
<glyph unicode="&#xd9;" horiz-adv-x="1308" d="M117 571v906h178v-885q0 -117 10 -193q20 -123 113.5 -194.5t234.5 -71.5q184 0 277 111q49 55 65.5 124.5t16.5 223.5v885h178v-906q0 -143 -16 -225q-37 -172 -178.5 -274.5t-340.5 -102.5q-252 0 -403 156q-78 78 -106.5 172t-28.5 274zM405 1931l133 109l262 -314 l-104 -88z" />
<glyph unicode="&#xda;" horiz-adv-x="1308" d="M117 571v906h178v-885q0 -117 10 -193q20 -123 113.5 -194.5t234.5 -71.5q184 0 277 111q49 55 65.5 124.5t16.5 223.5v885h178v-906q0 -143 -16 -225q-37 -172 -178.5 -274.5t-340.5 -102.5q-252 0 -403 156q-78 78 -106.5 172t-28.5 274zM526 1728l263 318l131 -105 l-295 -295z" />
<glyph unicode="&#xdb;" horiz-adv-x="1308" d="M117 571v906h178v-885q0 -117 10 -193q20 -123 113.5 -194.5t234.5 -71.5q184 0 277 111q49 55 65.5 124.5t16.5 223.5v885h178v-906q0 -143 -16 -225q-37 -172 -178.5 -274.5t-340.5 -102.5q-252 0 -403 156q-78 78 -106.5 172t-28.5 274zM305 1771l350 234l346 -236 l-80 -125l-266 183l-274 -170z" />
<glyph unicode="&#xdc;" horiz-adv-x="1308" d="M117 571v906h178v-885q0 -117 10 -193q20 -123 113.5 -194.5t234.5 -71.5q184 0 277 111q49 55 65.5 124.5t16.5 223.5v885h178v-906q0 -143 -16 -225q-37 -172 -178.5 -274.5t-340.5 -102.5q-252 0 -403 156q-78 78 -106.5 172t-28.5 274zM348 1530q0 49 35 84t84 35 t84 -35t35 -84t-36 -85t-85 -36q-47 0 -82 35t-35 86zM719 1530q0 49 34.5 84t86.5 35q49 0 83.5 -35t34.5 -84t-33.5 -85t-82.5 -36t-86 35t-37 86z" />
<glyph unicode="&#xdf;" horiz-adv-x="1112" d="M117 0v1081q0 188 112.5 305t294.5 117q176 0 293 -112.5t117 -286.5q0 -223 -193 -297q141 -27 226.5 -132.5t85.5 -254.5q0 -195 -127 -322t-326 -127q-59 0 -103 10.5t-104 38.5l45 175q78 -55 164 -56q115 0 195 86t80 209t-83 195.5t-223 72.5h-141l2 166h76 q115 0 184.5 65.5t69.5 178.5q0 98 -67.5 163.5t-168.5 65.5q-111 0 -174 -71.5t-63 -194.5v-1075h-172z" />
<glyph unicode="&#xe0;" horiz-adv-x="1198" d="M66 492q0 221 141 372.5t346 151.5q174 0 301 -117q26 -27 55 -68v158h172v-989h-172v143q-125 -176 -348 -176q-213 0 -354 149.5t-141 375.5zM244 475q0 -154 98 -256t242 -102q145 0 240.5 107.5t95.5 271.5q0 158 -97.5 263t-244.5 105q-141 0 -237.5 -106 t-96.5 -266v-17zM350 1370l133 109l262 -314l-104 -88z" />
<glyph unicode="&#xe1;" horiz-adv-x="1198" d="M66 492q0 221 141 372.5t346 151.5q174 0 301 -117q26 -27 55 -68v158h172v-989h-172v143q-125 -176 -348 -176q-213 0 -354 149.5t-141 375.5zM244 475q0 -154 98 -256t242 -102q145 0 240.5 107.5t95.5 271.5q0 158 -97.5 263t-244.5 105q-141 0 -237.5 -106 t-96.5 -266v-17zM471 1167l263 318l131 -105l-295 -295z" />
<glyph unicode="&#xe2;" horiz-adv-x="1198" d="M66 492q0 221 141 372.5t346 151.5q174 0 301 -117q26 -27 55 -68v158h172v-989h-172v143q-125 -176 -348 -176q-213 0 -354 149.5t-141 375.5zM244 475q0 -154 98 -256t242 -102q145 0 240.5 107.5t95.5 271.5q0 158 -97.5 263t-244.5 105q-141 0 -237.5 -106 t-96.5 -266v-17zM250 1210l350 234l346 -236l-80 -125l-266 183l-274 -170z" />
<glyph unicode="&#xe3;" horiz-adv-x="1198" d="M66 492q0 221 141 372.5t346 151.5q174 0 301 -117q26 -27 55 -68v158h172v-989h-172v143q-125 -176 -348 -176q-213 0 -354 149.5t-141 375.5zM244 475q0 -154 98 -256t242 -102q145 0 240.5 107.5t95.5 271.5q0 158 -97.5 263t-244.5 105q-141 0 -237.5 -106 t-96.5 -266v-17zM297 1110v139q41 14 69.5 19.5t61.5 5.5q25 0 59.5 -6t45.5 -8l81 -21q80 -18 130 -18q51 0 81.5 9t73.5 36v-144q-76 -31 -149 -30q-68 0 -148 18l-84 18q-41 12 -80 13q-61 0 -141 -31z" />
<glyph unicode="&#xe4;" horiz-adv-x="1198" d="M66 492q0 221 141 372.5t346 151.5q174 0 301 -117q26 -27 55 -68v158h172v-989h-172v143q-125 -176 -348 -176q-213 0 -354 149.5t-141 375.5zM244 475q0 -154 98 -256t242 -102q145 0 240.5 107.5t95.5 271.5q0 158 -97.5 263t-244.5 105q-141 0 -237.5 -106 t-96.5 -266v-17zM272 1276q0 47 35 82t82 35q49 0 84 -35t35 -82t-35 -84t-84 -37q-47 0 -82 35t-35 86zM688 1276q0 47 35 82t84 35t84 -35t35 -82q0 -51 -35 -86t-84 -35t-84 35t-35 86z" />
<glyph unicode="&#xe5;" horiz-adv-x="1198" d="M66 496q0 225 140 377.5t345 152.5q90 0 166 -30.5t137 -90.5q16 -14 26.5 -29.5t24.5 -35.5v147h176v-987h-176v143l-43 -59q-113 -117 -301 -117q-213 0 -354 149.5t-141 379.5zM244 481q0 -158 97 -261t243 -103q143 0 239.5 108.5t96.5 274.5q0 160 -97.5 265 t-244.5 105q-143 0 -238.5 -107.5t-95.5 -266.5v-15zM383 1278q0 82 57.5 139.5t141.5 57.5q82 0 141 -57.5t59 -139.5t-57 -139.5t-143 -57.5q-80 0 -139.5 57.5t-59.5 139.5zM483 1278q0 -41 29 -71.5t70 -30.5t71.5 30.5t30.5 71.5t-28.5 71.5t-71.5 30.5 q-41 0 -71 -29.5t-30 -72.5z" />
<glyph unicode="&#xe6;" horiz-adv-x="1820" d="M66 305q0 147 125.5 244.5t318.5 97.5q141 0 238 -51q20 -12 25.5 -16.5t25.5 -22.5q0 152 -82 236t-228 84q-70 0 -129 -13.5t-141 -48.5l-55 129l76 31q123 43 249 43q170 0 276.5 -72t125.5 -201q25 121 127 193t256 72q213 0 352 -145.5t139 -372.5v-39 q-6 -35 -8 -54h-803q47 -279 324 -278q215 0 313 205l152 -82q-84 -143 -196.5 -211t-272.5 -68q-221 0 -344 135q-18 20 -30.5 44t-20.5 38q-45 -104 -151.5 -162.5t-256.5 -58.5q-176 0 -290.5 96.5t-114.5 247.5zM229 293q0 -84 71 -133t187 -49q133 0 219.5 69.5 t86.5 181.5q0 45 -19.5 73t-66.5 46q-80 31 -179 31q-137 0 -218 -56.5t-81 -152.5v-10zM956 547h621q0 145 -83 230t-222 85q-141 0 -228.5 -85t-87.5 -230z" />
<glyph unicode="&#xe7;" horiz-adv-x="929" d="M66 483q0 231 153.5 381t390.5 150q90 0 146.5 -12.5t138.5 -53.5l-53 -160q-66 37 -119 51.5t-117 14.5q-156 0 -259 -105.5t-103 -265.5q0 -156 100 -256t258 -100q55 0 125 16q31 12 49.5 20.5t63.5 33.5l61 -150l-65 -31q-55 -27 -118 -39t-132 -12 q-227 0 -373.5 146.5t-146.5 371.5zM352 -334l187 279l129 -72l-199 -264z" />
<glyph unicode="&#xe8;" horiz-adv-x="1122" d="M66 487q0 231 142 380t363 149q215 0 353.5 -146.5t138.5 -375.5l-2 -78h-813q20 -139 108 -219t219 -80q201 0 308 205l155 -89q-86 -139 -195.5 -202.5t-267.5 -63.5q-227 0 -368 143.5t-141 376.5zM248 565h624q0 135 -84 219t-217 84q-127 0 -214 -80.5t-109 -222.5z M313 1370l133 109l262 -314l-104 -88z" />
<glyph unicode="&#xe9;" horiz-adv-x="1122" d="M66 487q0 231 142 380t363 149q215 0 353.5 -146.5t138.5 -375.5l-2 -78h-813q20 -139 108 -219t219 -80q201 0 308 205l155 -89q-86 -139 -195.5 -202.5t-267.5 -63.5q-227 0 -368 143.5t-141 376.5zM248 565h624q0 135 -84 219t-217 84q-127 0 -214 -80.5t-109 -222.5z M432 1167l263 318l131 -105l-295 -295z" />
<glyph unicode="&#xea;" horiz-adv-x="1122" d="M66 487q0 231 142 380t363 149q215 0 353.5 -146.5t138.5 -375.5l-2 -78h-813q20 -139 108 -219t219 -80q201 0 308 205l155 -89q-86 -139 -195.5 -202.5t-267.5 -63.5q-227 0 -368 143.5t-141 376.5zM213 1210l350 234l346 -236l-80 -125l-266 183l-274 -170zM248 565 h624q0 135 -84 219t-217 84q-127 0 -214 -80.5t-109 -222.5z" />
<glyph unicode="&#xeb;" horiz-adv-x="1122" d="M66 487q0 231 142 380t363 149q215 0 353.5 -146.5t138.5 -375.5l-2 -78h-813q20 -139 108 -219t219 -80q201 0 308 205l155 -89q-86 -139 -195.5 -202.5t-267.5 -63.5q-227 0 -368 143.5t-141 376.5zM236 1202q0 49 34.5 82t83.5 33t82 -33t33 -82t-32.5 -84t-82.5 -35 q-49 0 -83.5 35t-34.5 84zM248 565h624q0 135 -84 219t-217 84q-127 0 -214 -80.5t-109 -222.5zM649 1202q0 47 34 81t83 34q51 0 86 -33t35 -82t-35 -84t-86 -35q-47 0 -82 35t-35 84z" />
<glyph unicode="&#xec;" horiz-adv-x="337" d="M-78 1370l133 109l262 -314l-104 -88zM88 0v987h170v-987h-170z" />
<glyph unicode="&#xed;" horiz-adv-x="337" d="M41 1167l263 318l131 -105l-295 -295zM88 0v987h170v-987h-170z" />
<glyph unicode="&#xee;" horiz-adv-x="337" d="M-178 1210l350 234l346 -236l-80 -125l-266 183l-274 -170zM88 0v987h170v-987h-170z" />
<glyph unicode="&#xef;" horiz-adv-x="337" d="M-155 1202q0 49 34.5 82t83.5 33t82 -33t33 -82t-32.5 -84t-82.5 -35q-49 0 -83.5 35t-34.5 84zM88 0v987h170v-987h-170zM258 1202q0 47 34 81t83 34q51 0 86 -33t35 -82t-35 -84t-86 -35q-47 0 -82 35t-35 84z" />
<glyph unicode="&#xf1;" horiz-adv-x="1069" d="M117 0v989h172v-164q119 190 317 191q160 0 258 -103q86 -92 86 -288v-625h-168v584q0 72 -8 106q-12 78 -73.5 127t-147.5 49q-121 0 -192.5 -86t-71.5 -231v-549h-172zM233 1110v139q41 14 69.5 19.5t61.5 5.5q25 0 59.5 -6t45.5 -8l81 -21q80 -18 130 -18q51 0 81.5 9 t73.5 36v-144q-76 -31 -149 -30q-68 0 -148 18l-84 18q-41 12 -80 13q-61 0 -141 -31z" />
<glyph unicode="&#xf2;" horiz-adv-x="1202" d="M66 492q0 227 151.5 374.5t382.5 147.5t384 -148.5t153 -373.5t-151.5 -373t-385.5 -148q-231 0 -382.5 148t-151.5 373zM240 492q0 -158 102 -262.5t258 -104.5q158 0 260.5 104.5t102.5 262.5t-102.5 264t-260.5 106q-154 0 -257 -105.5t-103 -264.5zM352 1370l133 109 l262 -314l-104 -88z" />
<glyph unicode="&#xf3;" horiz-adv-x="1202" d="M66 492q0 227 151.5 374.5t382.5 147.5t384 -148.5t153 -373.5t-151.5 -373t-385.5 -148q-231 0 -382.5 148t-151.5 373zM240 492q0 -158 102 -262.5t258 -104.5q158 0 260.5 104.5t102.5 262.5t-102.5 264t-260.5 106q-154 0 -257 -105.5t-103 -264.5zM473 1167l263 318 l131 -105l-295 -295z" />
<glyph unicode="&#xf4;" horiz-adv-x="1202" d="M66 492q0 227 151.5 374.5t382.5 147.5t384 -148.5t153 -373.5t-151.5 -373t-385.5 -148q-231 0 -382.5 148t-151.5 373zM240 492q0 -158 102 -262.5t258 -104.5q158 0 260.5 104.5t102.5 262.5t-102.5 264t-260.5 106q-154 0 -257 -105.5t-103 -264.5zM252 1210l350 234 l346 -236l-80 -125l-266 183l-274 -170z" />
<glyph unicode="&#xf5;" horiz-adv-x="1202" d="M66 492q0 227 151.5 374.5t382.5 147.5t384 -148.5t153 -373.5t-151.5 -373t-385.5 -148q-231 0 -382.5 148t-151.5 373zM240 492q0 -158 102 -262.5t258 -104.5q158 0 260.5 104.5t102.5 262.5t-102.5 264t-260.5 106q-154 0 -257 -105.5t-103 -264.5zM299 1110v139 q41 14 69.5 19.5t61.5 5.5q25 0 59.5 -6t45.5 -8l81 -21q80 -18 130 -18q51 0 81.5 9t73.5 36v-144q-76 -31 -149 -30q-68 0 -148 18l-84 18q-41 12 -80 13q-61 0 -141 -31z" />
<glyph unicode="&#xf6;" horiz-adv-x="1202" d="M66 492q0 227 151.5 374.5t382.5 147.5t384 -148.5t153 -373.5t-151.5 -373t-385.5 -148q-231 0 -382.5 148t-151.5 373zM240 492q0 -158 102 -262.5t258 -104.5q158 0 260.5 104.5t102.5 262.5t-102.5 264t-260.5 106q-154 0 -257 -105.5t-103 -264.5zM289 1274 q0 49 32.5 84t86.5 35q49 0 81.5 -35t32.5 -84t-32.5 -84t-83.5 -35q-47 0 -82 35t-35 84zM678 1274q0 49 32.5 84t82.5 35q47 0 83.5 -35t36.5 -84t-32.5 -84t-83.5 -35q-49 0 -84 35t-35 84z" />
<glyph unicode="&#xf7;" horiz-adv-x="1216" d="M88 414v139h948v-139h-948zM446 207q0 49 33 82q39 35 84 35q49 0 82 -33t33 -84q0 -49 -35 -82q-31 -35 -80 -35t-83 36t-34 81zM446 758q0 49 33 82q39 35 84 34q49 0 80 -34q35 -35 35 -82q0 -49 -35 -82q-31 -35 -80 -35t-83 34t-34 83z" />
<glyph unicode="&#xf8;" horiz-adv-x="1216" d="M66 27l131 118l-52 66q-76 113 -75 283q0 223 151.5 372.5t380.5 149.5q49 0 93 -6t96.5 -24.5t79 -34t92.5 -66.5l124 125l62 -66l-127 -117l43 -57q74 -121 74 -278q0 -221 -154 -371t-383 -150q-98 0 -182 29q-43 16 -75 33.5t-87 58.5l-131 -131zM246 498 q0 -72 14 -120.5t51 -107.5l533 504q-16 14 -45 33.5t-60 32.5q-63 23 -135 22q-156 0 -257 -103.5t-101 -260.5zM379 203q57 -43 107.5 -59.5t115.5 -16.5q154 0 258.5 104.5t104.5 262.5q0 72 -12.5 112t-51.5 103z" />
<glyph unicode="&#xf9;" horiz-adv-x="1081" d="M117 393v596h172v-577q0 -78 8 -111q43 -168 244 -168q121 0 190 70q33 35 47.5 81t14.5 128v577h170v-596q0 -94 -19 -155q-35 -119 -145.5 -193t-257.5 -74q-176 0 -297 103q-68 55 -97.5 130t-29.5 189zM293 1370l133 109l262 -314l-104 -88z" />
<glyph unicode="&#xfa;" horiz-adv-x="1081" d="M117 393v596h172v-577q0 -78 8 -111q43 -168 244 -168q121 0 190 70q33 35 47.5 81t14.5 128v577h170v-596q0 -94 -19 -155q-35 -119 -145.5 -193t-257.5 -74q-176 0 -297 103q-68 55 -97.5 130t-29.5 189zM411 1167l263 318l131 -105l-295 -295z" />
<glyph unicode="&#xfb;" horiz-adv-x="1081" d="M117 393v596h172v-577q0 -78 8 -111q43 -168 244 -168q121 0 190 70q33 35 47.5 81t14.5 128v577h170v-596q0 -94 -19 -155q-35 -119 -145.5 -193t-257.5 -74q-176 0 -297 103q-68 55 -97.5 130t-29.5 189zM192 1210l350 234l346 -236l-80 -125l-266 183l-274 -170z" />
<glyph unicode="&#xfc;" horiz-adv-x="1081" d="M117 393v596h172v-577q0 -78 8 -111q43 -168 244 -168q121 0 190 70q33 35 47.5 81t14.5 128v577h170v-596q0 -94 -19 -155q-35 -119 -145.5 -193t-257.5 -74q-176 0 -297 103q-68 55 -97.5 130t-29.5 189zM221 1274q0 49 33 84t82 35t84 -35t35 -84q0 -47 -35 -82 t-84 -35t-82 33t-33 84zM627 1274q0 49 32.5 84t83.5 35q49 0 82 -35t33 -84q0 -47 -32.5 -82t-82.5 -35q-47 0 -81.5 33t-34.5 84z" />
<glyph unicode="&#xff;" horiz-adv-x="856" d="M-59 989h184l258 -651q10 -27 23.5 -66t23.5 -98q12 84 49 170l256 645h189l-441 -1065q-70 -168 -112 -223q-84 -106 -254 -107q-68 0 -148 23l43 158q53 -18 101 -19q102 0 153 86q8 16 27.5 59.5t46.5 108.5zM103 1202q0 49 34.5 82t83.5 33t82 -33t33 -82t-32.5 -84 t-82.5 -35q-49 0 -83.5 35t-34.5 84zM516 1202q0 47 34 81t83 34q51 0 86 -33t35 -82t-35 -84t-86 -35q-47 0 -82 35t-35 84z" />
<glyph unicode="&#x152;" horiz-adv-x="2213" d="M74 731q0 328 224 550t552 222q137 0 266 -45t213 -125l41 -51v195h756v-156h-578v-436h496v-154h-496v-575h606v-156h-784v190l-47 -57q-78 -78 -201 -121t-268 -43q-334 0 -557 217t-223 545zM254 737q0 -254 174 -426t430 -172q137 0 251 48.5t179 136.5 q51 66 73.5 164t22.5 249q0 188 -26.5 281.5t-105 165t-181 110.5t-219.5 39q-250 0 -424 -174t-174 -422z" />
<glyph unicode="&#x153;" horiz-adv-x="2004" d="M66 487q0 223 154.5 374t383.5 151q238 0 379 -160q31 -28 70 -96q102 254 397 254q215 0 357.5 -142.5t142.5 -355.5l-6 -111h-801q47 -276 323 -276q215 0 314 201l147 -82q-27 -47 -49 -76q-14 -18 -47 -53q-152 -147 -365 -148q-156 0 -268.5 69.5t-155.5 192.5 q-35 -70 -65 -102q-135 -158 -373 -158q-233 0 -385.5 146.5t-152.5 371.5zM240 485q0 -158 100 -258t260 -100q162 0 264.5 102.5t102.5 266.5q0 156 -100.5 254t-262.5 98q-160 0 -262 -100.5t-102 -262.5zM1149 549h608q0 143 -80 225t-219 82q-135 0 -222 -83t-87 -224z " />
<glyph unicode="&#x178;" horiz-adv-x="974" d="M-59 1477h204l297 -549q20 -41 30.5 -69t16.5 -68q4 37 10.5 63.5t35.5 75.5l292 547h207l-456 -822v-655h-177v655zM162 1763q0 49 34.5 82t83.5 33t82 -33t33 -82t-32.5 -84t-82.5 -35q-49 0 -83.5 35t-34.5 84zM575 1763q0 47 34 81t83 34q51 0 86 -33t35 -82t-35 -84 t-86 -35q-47 0 -82 35t-35 84z" />
<glyph unicode="&#x2c6;" horiz-adv-x="700" d="M2 1210l350 234l346 -236l-80 -125l-266 183l-274 -170z" />
<glyph unicode="&#x2dc;" horiz-adv-x="606" d="M2 1110v139q41 14 69.5 19.5t61.5 5.5q25 0 59.5 -6t45.5 -8l81 -21q80 -18 130 -18q51 0 81.5 9t73.5 36v-144q-76 -31 -149 -30q-68 0 -148 18l-84 18q-41 12 -80 13q-61 0 -141 -31z" />
<glyph unicode="&#x2000;" horiz-adv-x="1023" />
<glyph unicode="&#x2001;" horiz-adv-x="2046" />
<glyph unicode="&#x2002;" horiz-adv-x="1023" />
<glyph unicode="&#x2003;" horiz-adv-x="2046" />
<glyph unicode="&#x2004;" horiz-adv-x="682" />
<glyph unicode="&#x2005;" horiz-adv-x="511" />
<glyph unicode="&#x2006;" horiz-adv-x="341" />
<glyph unicode="&#x2007;" horiz-adv-x="341" />
<glyph unicode="&#x2008;" horiz-adv-x="255" />
<glyph unicode="&#x2009;" horiz-adv-x="409" />
<glyph unicode="&#x200a;" horiz-adv-x="113" />
<glyph unicode="&#x2010;" horiz-adv-x="622" d="M74 414v164h475v-164h-475z" />
<glyph unicode="&#x2011;" horiz-adv-x="622" d="M74 414v164h475v-164h-475z" />
<glyph unicode="&#x2012;" horiz-adv-x="622" d="M74 414v164h475v-164h-475z" />
<glyph unicode="&#x2013;" d="M106 678v151h961v-151h-961z" />
<glyph unicode="&#x2014;" horiz-adv-x="2039" d="M61 678v151h1917v-151h-1917z" />
<glyph unicode="&#x2018;" horiz-adv-x="389" d="M16 1006l185 505l129 -34l-121 -523z" />
<glyph unicode="&#x2019;" horiz-adv-x="389" d="M16 989l119 522l195 -49l-187 -506z" />
<glyph unicode="&#x201a;" horiz-adv-x="385" d="M16 -268l119 522l193 -51l-185 -504z" />
<glyph unicode="&#x201c;" horiz-adv-x="714" d="M16 1006l185 505l129 -34l-121 -523zM338 1006l188 505l129 -34l-125 -523z" />
<glyph unicode="&#x201d;" horiz-adv-x="712" d="M16 1006l119 522l195 -51l-187 -504zM338 1006l121 522l196 -51l-188 -504z" />
<glyph unicode="&#x201e;" horiz-adv-x="710" d="M16 -268l119 522l193 -51l-185 -504zM338 -268l123 522l190 -51l-184 -504z" />
<glyph unicode="&#x2022;" horiz-adv-x="370" d="M59 496q0 53 36 89t89 36q51 0 88 -37t37 -90q0 -51 -35.5 -87t-89.5 -36q-51 0 -88 37t-37 88z" />
<glyph unicode="&#x2026;" horiz-adv-x="2039" d="M213 109q0 55 37 92t92 37t92 -37t37 -92t-37 -92t-92 -37t-92 37t-37 92zM895 109q0 55 37 92t92 37t92 -37t37 -92t-37 -92t-92 -37t-92 37t-37 92zM1577 109q0 55 37 92t92 37t92 -37t37 -92t-37 -92t-92 -37t-92 37t-37 92z" />
<glyph unicode="&#x202f;" horiz-adv-x="409" />
<glyph unicode="&#x2039;" horiz-adv-x="798" d="M74 498l547 477l106 -117l-424 -356l422 -371l-104 -123z" />
<glyph unicode="&#x203a;" horiz-adv-x="800" d="M74 133l424 363l-422 372l104 115l549 -494l-553 -479z" />
<glyph unicode="&#x205f;" horiz-adv-x="511" />
<glyph unicode="&#x2122;" horiz-adv-x="1613" d="M96 1372v103h445v-103h-166v-635h-115v635h-164zM516 737l141 756h62l205 -467q16 -41 24 -69.5t8 -59.5q0 61 33 129l205 467h61l142 -756h-115l-74 430l-4 23l-2 18q-2 23 -2 35t4 37l-20 -72l-10 -26l-3 -11l-194 -450h-41l-195 450l-4 15l-8 24l-20 70q4 -33 4 -45 q-2 -18 -2 -27l-2 -18l-4 -23l-74 -430h-115z" />
<glyph unicode="&#x25fc;" horiz-adv-x="993" d="M0 0v993h993v-993h-993z" />
</font>
</defs>
</svg>
